<?xml version="1.0" standalone="no"?><!DOCTYPE svg PUBLIC "-//W3C//DTD SVG 1.1//EN" "http://www.w3.org/Graphics/SVG/1.1/DTD/svg11.dtd"><svg t="1599542789483" class="icon" viewBox="0 0 1024 1024" version="1.1" xmlns="http://www.w3.org/2000/svg" p-id="11493" xmlns:xlink="http://www.w3.org/1999/xlink" width="200" height="200"><defs><style type="text/css"></style></defs><path d="M334.848 808.96c-17.408-0.512-31.744-14.848-32.256-32.256v-404.48c0-17.92 14.336-32.256 32.256-32.256s32.256 14.336 32.256 32.256v404.48c0 17.92-14.336 32.256-32.256 32.256z m354.304 0c-17.92 0-32.256-14.336-32.256-32.256v-404.48c1.024-17.92 16.384-31.232 34.304-29.696 15.872 1.024 28.672 13.824 29.696 29.696v404.48c0.512 17.92-13.824 32.256-31.744 32.256z m-177.152 0c-17.92 0-32.256-14.336-32.256-32.256v-404.48c0-17.92 14.336-32.256 32.256-32.256s32.256 14.336 32.256 32.256v404.48c0 17.92-14.336 32.256-32.256 32.256z m479.744-682.496c17.408-0.512 31.744 13.312 32.256 30.72v0.512c0 17.92-14.336 32.256-32.256 32.256H872.448v675.84c0 73.728-59.904 133.12-133.12 133.12H284.672c-73.728 0-133.12-59.904-133.12-133.12V190.976H32.256c-17.92-1.024-31.232-15.872-30.72-33.792 1.024-16.384 13.824-29.696 30.72-30.72h246.272V82.432C278.528 36.864 315.392 0 360.96 0h303.104c45.568 0 82.432 36.864 82.432 82.432v44.032h245.248z m-649.728-43.52v44.032h340.992V82.944c0-10.24-8.192-18.944-18.432-18.944H360.96c-10.752-0.512-18.944 8.192-18.944 18.944 0-0.512 0-0.512 0 0z m466.432 782.848v-675.84H215.552v675.84c0 37.888 30.72 69.12 69.12 69.12h454.656c37.888 0 69.12-31.232 69.12-69.12z" p-id="11494"></path></svg>