<?xml version="1.0" standalone="no"?><!DOCTYPE svg PUBLIC "-//W3C//DTD SVG 1.1//EN" "http://www.w3.org/Graphics/SVG/1.1/DTD/svg11.dtd"><svg t="1600060945789" class="icon" viewBox="0 0 1024 1024" version="1.1" xmlns="http://www.w3.org/2000/svg" p-id="12027" xmlns:xlink="http://www.w3.org/1999/xlink" width="200" height="200"><defs><style type="text/css"></style></defs><path d="M560 240l185.6 185.6L896 272l-192-179.2-144 147.2z m131.2 246.4l-185.6-185.6L83.2 745.6l12.8 176 179.2 3.2 416-438.4zM736 16l233.6 214.4c22.4 19.2 22.4 54.4 3.2 76.8L329.6 988.8c-9.6 12.8-25.6 16-41.6 16l-217.6-3.2c-28.8 0-51.2-22.4-54.4-51.2L0 742.4c0-16 3.2-32 16-41.6L659.2 16c22.4-19.2 54.4-22.4 76.8 0z m-121.6 966.4v-83.2H1024v83.2H614.4z" p-id="12028"></path></svg>