<?xml version="1.0" standalone="no"?><!DOCTYPE svg PUBLIC "-//W3C//DTD SVG 1.1//EN" "http://www.w3.org/Graphics/SVG/1.1/DTD/svg11.dtd"><svg t="1591931643786" class="icon" viewBox="0 0 1227 1024" version="1.1" xmlns="http://www.w3.org/2000/svg" p-id="5751" xmlns:xlink="http://www.w3.org/1999/xlink" width="239.6484375" height="200"><defs><style type="text/css"></style></defs><path d="M48.128 0h1054.208c31.744 0 48.128 15.872 48.128 48.128 0 31.744-15.872 48.128-48.128 48.128H48.128C15.872 95.744 0 79.872 0 48.128 0 15.872 15.872 0 48.128 0zM48.128 862.72h1054.208c31.744 0 48.128 15.872 48.128 48.128 0 31.744-15.872 48.128-48.128 48.128H48.128c-31.744 0-48.128-15.872-48.128-48.128 0-32.256 15.872-48.128 48.128-48.128zM431.104 574.976h670.72c31.744 0 48.128 15.872 48.128 48.128 0 31.744-15.872 48.128-48.128 48.128h-670.72c-31.744 0-48.128-15.872-48.128-48.128 0.512-32.256 16.384-48.128 48.128-48.128zM431.104 287.744h670.72c31.744 0 48.128 15.872 48.128 48.128 0 31.744-15.872 48.128-48.128 48.128h-670.72c-31.744 0-48.128-15.872-48.128-48.128 0.512-32.256 16.384-48.128 48.128-48.128zM282.112 475.136l-256-181.248c-7.68-5.12-17.92-3.584-23.04 4.096-2.048 2.56-3.072 6.144-3.072 9.728v362.496c0 9.216 7.168 16.896 16.384 16.896 3.584 0 7.168-1.024 9.728-3.072l256-181.248c7.68-5.632 9.216-15.872 3.584-23.552-1.024-1.536-2.048-3.072-3.584-4.096z" p-id="5752"></path></svg>