<?xml version="1.0" standalone="no"?><!DOCTYPE svg PUBLIC "-//W3C//DTD SVG 1.1//EN" "http://www.w3.org/Graphics/SVG/1.1/DTD/svg11.dtd"><svg t="1600485616345" class="icon" viewBox="0 0 1024 1024" version="1.1" xmlns="http://www.w3.org/2000/svg" p-id="21438" xmlns:xlink="http://www.w3.org/1999/xlink" width="200" height="200"><defs><style type="text/css"></style></defs><path d="M0.512 49.664v306.688c0 21.504 17.408 39.424 39.424 39.424s39.424-17.408 39.424-39.424V135.168l249.344 249.344c14.848 14.848 38.4 14.848 53.248 0 14.848-14.848 14.848-38.4 0-53.248L132.096 81.92H353.28c21.504 0 39.424-17.408 39.424-39.424S375.296 3.072 353.28 3.072H46.592C17.92 3.584 0.512 17.92 0.512 49.664z m976.384-46.08h-306.688c-21.504 0-39.424 17.408-39.424 39.424s17.408 39.424 39.424 39.424h221.184l-249.344 249.344c-14.848 14.848-14.848 38.4 0 53.248 14.848 14.848 38.4 14.848 53.248 0l249.344-249.344v221.184c0 21.504 17.408 39.424 39.424 39.424s39.424-17.408 39.424-39.424v-307.2c-0.512-31.744-17.92-46.08-46.592-46.08zM46.592 1022.976H353.28c21.504 0 39.424-17.408 39.424-39.424s-17.408-39.424-39.424-39.424H132.096l249.344-249.344c14.848-14.848 14.848-38.4 0-53.248-14.848-14.848-38.4-14.848-53.248 0L78.848 890.88v-221.184c0-21.504-17.408-39.424-39.424-39.424S0 647.68 0 669.696v306.688c0.512 32.256 17.92 46.592 46.592 46.592z m976.384-46.08v-306.688c0-21.504-17.408-39.424-39.424-39.424s-39.424 17.408-39.424 39.424v221.184l-249.344-249.344c-14.848-14.848-38.4-14.848-53.248 0-14.848 14.848-14.848 38.4 0 53.248l249.344 249.344h-221.184c-21.504 0-39.424 17.408-39.424 39.424s17.408 39.424 39.424 39.424h306.688c29.184-0.512 46.592-14.848 46.592-46.592z" p-id="21439"></path></svg>