<?xml version="1.0" standalone="no"?><!DOCTYPE svg PUBLIC "-//W3C//DTD SVG 1.1//EN" "http://www.w3.org/Graphics/SVG/1.1/DTD/svg11.dtd"><svg t="1600485382869" class="icon" viewBox="0 0 1024 1024" version="1.1" xmlns="http://www.w3.org/2000/svg" p-id="13068" xmlns:xlink="http://www.w3.org/1999/xlink" width="200" height="200"><defs><style type="text/css"></style></defs><path d="M898.048 848.384c81.408-93.184 125.952-210.944 125.952-335.872 0-136.704-53.248-265.216-150.016-361.472C778.752 55.808 652.8 3.072 518.656 1.536c-2.048-0.512-11.776-0.512-13.824 0-134.144 1.536-259.584 54.272-354.304 148.992C55.808 245.76 2.56 371.712 1.024 505.344c-0.512 2.048-0.512 9.728 0 11.776 1.024 134.656 54.272 261.632 150.016 356.864 96.768 96.768 225.28 150.016 361.472 150.016 136.704 0 265.216-53.248 361.472-150.016 7.168-7.168 13.824-14.336 20.48-21.504l1.536-1.536c1.024-1.024 1.536-1.536 2.048-2.56z m-849.92-313.344h215.04c1.536 75.264 10.752 145.92 25.6 208.896-70.656 18.944-115.712 44.032-138.752 59.392-59.392-74.24-96.768-166.912-101.888-268.288z m101.376-312.832c23.04 15.36 68.096 40.448 139.264 59.904-14.848 61.952-24.064 131.584-25.6 205.824h-215.04c5.632-99.84 42.496-192 101.376-265.728z m826.88 265.728h-215.04c-1.536-74.24-10.752-143.36-25.6-205.824 71.168-18.944 116.224-44.032 139.264-59.392 58.88 73.728 96.256 165.376 101.376 265.216z m-262.144 0h-179.2V309.248c59.904-1.024 111.104-7.168 155.136-15.872 14.336 59.392 22.528 125.44 24.064 194.56z m-179.2-225.792V51.2c41.984 11.776 83.456 56.32 115.712 125.952 10.24 22.016 18.944 45.568 27.136 70.656-40.448 7.68-87.552 13.312-142.848 14.336z m-47.104-210.432v210.432c-54.272-1.536-101.376-6.656-141.312-14.848 7.68-25.088 16.896-48.64 26.624-70.144 32.768-69.12 73.216-113.152 114.688-125.44z m0 257.536v178.688H310.272c1.536-69.12 9.728-135.168 24.576-195.072 43.008 8.704 94.208 14.848 153.088 16.384z m-177.664 225.792h178.176V716.8c-59.392 1.536-110.08 7.68-153.6 16.384-14.848-60.928-23.04-128-24.576-198.144z m177.664 228.864v209.408c-41.984-12.288-82.432-56.832-114.176-125.952-9.728-21.504-18.944-44.544-26.624-69.632 39.936-7.168 86.528-12.8 140.8-13.824z m47.104 209.92v-209.92c54.784 1.024 101.888 6.656 142.336 14.336-7.68 24.576-16.384 48.128-26.624 69.632-32.256 69.632-73.216 114.176-115.712 125.952z m0-257.024v-181.76h179.2c-1.536 70.144-9.728 137.216-24.576 197.632-43.52-8.704-94.72-14.848-154.624-15.872z m226.304-181.76h215.04c-4.608 100.864-41.984 193.536-101.376 267.776-23.552-15.872-68.608-40.448-139.264-59.392 15.36-62.976 24.064-133.12 25.6-208.384z m82.432-347.648c-20.992 13.312-59.904 33.792-120.32 49.664-22.016-72.192-52.736-131.584-89.088-173.056 80.384 22.016 152.576 65.024 209.408 123.392zM390.656 64c-36.352 40.96-67.072 100.352-89.6 172.544C241.152 220.16 202.24 199.68 181.248 186.368c56.832-57.344 128.512-100.352 209.408-122.368zM181.76 838.656c20.992-13.312 59.904-33.28 119.808-49.664 22.016 71.68 52.736 131.072 89.088 172.032-80.384-22.016-152.064-65.024-208.896-122.368z m452.608 122.368c36.352-40.96 67.072-100.352 89.088-172.032 59.392 15.872 98.304 36.352 119.808 49.664-56.832 57.344-128.512 100.352-208.896 122.368z" p-id="13069"></path></svg>