<?xml version="1.0" standalone="no"?><!DOCTYPE svg PUBLIC "-//W3C//DTD SVG 1.1//EN" "http://www.w3.org/Graphics/SVG/1.1/DTD/svg11.dtd"><svg t="1591931586663" class="icon" viewBox="0 0 1024 1024" version="1.1" xmlns="http://www.w3.org/2000/svg" p-id="5212" xmlns:xlink="http://www.w3.org/1999/xlink" width="200" height="200"><defs><style type="text/css"></style></defs><path d="M512 577.37a40 40 0 0 0-40 40v126a40 40 0 0 0 80 0v-126a40 40 0 0 0-40-40z" p-id="5213"></path><path d="M831.85 417.37H386.17a0.16 0.16 0 0 1-0.15-0.16V270.02a126 126 0 0 1 252 0v15.82a40 40 0 1 0 80 0V272c0-119.82-98-214.35-217.62-207.7C392 70.36 306 160.14 306 270v147.2a0.16 0.16 0 0 1-0.16 0.16H192.15A64.15 64.15 0 0 0 128 481.52v414.32A64.15 64.15 0 0 0 192.15 960h639.7A64.15 64.15 0 0 0 896 895.84V481.52a64.15 64.15 0 0 0-64.15-64.15zM816 879.84a0.16 0.16 0 0 1-0.15 0.16h-607.7a0.16 0.16 0 0 1-0.15-0.16V497.52a0.15 0.15 0 0 1 0.15-0.15h607.7a0.15 0.15 0 0 1 0.15 0.15z" p-id="5214"></path></svg>