<?xml version="1.0" standalone="no"?><!DOCTYPE svg PUBLIC "-//W3C//DTD SVG 1.1//EN" "http://www.w3.org/Graphics/SVG/1.1/DTD/svg11.dtd"><svg t="1600485404858" class="icon" viewBox="0 0 1024 1024" version="1.1" xmlns="http://www.w3.org/2000/svg" p-id="13878" xmlns:xlink="http://www.w3.org/1999/xlink" width="200" height="200"><defs><style type="text/css"></style></defs><path d="M488.448 531.456c-128 0-231.936-103.936-231.936-231.936s103.936-231.936 231.936-231.936c128 0 231.936 103.936 231.936 231.936s-103.936 231.936-231.936 231.936M488.448 1.536C409.6 1.536 333.824 32.768 277.504 89.088c-55.808 55.808-87.04 131.584-87.04 210.432 0 111.616 61.952 207.872 152.576 258.56-165.888 59.392-284.672 217.088-284.672 403.456 0 11.264 2.56 22.016 3.072 33.28h0.512c1.536 16.384 15.872 28.672 32.256 28.672s30.208-12.288 32.256-28.672h1.024c-1.024-11.264-3.072-22.016-3.072-33.28 0-96.768 38.4-189.44 106.496-257.536 68.096-68.096 160.768-106.496 257.536-106.496l33.28-3.072c148.48-16.896 264.704-141.312 264.704-294.4 0-164.864-133.12-297.984-297.984-298.496m454.656 850.944c-2.048-0.512-4.096-1.024-6.144-1.024h-366.592c-13.824 0-24.576 11.264-24.576 24.576s11.264 24.576 24.576 24.576H880.64l-83.456 81.92c-4.608 4.608-7.168 10.752-7.168 16.896 0 6.656 2.56 12.8 7.168 16.896 9.728 9.728 25.088 9.728 34.816 0l124.928-123.392c4.608-4.608 7.168-10.752 7.168-17.408 0-6.656-2.56-12.8-7.168-17.408-3.584-2.56-8.704-5.12-13.824-5.632m-377.344-76.8c2.048 0.512 4.096 1.024 6.144 1.024h368.64c9.216 1.024 17.92-3.584 22.528-11.264s4.608-17.408 0-25.6c-4.608-7.68-13.824-12.288-22.528-11.264h-311.808l83.968-82.944c7.168-7.168 9.216-17.92 5.12-26.624-3.584-9.216-12.8-15.36-22.528-15.36-6.656 0-12.8 2.56-17.408 7.168l-125.44 124.416c-4.608 4.608-7.168 10.752-7.168 17.408s2.56 12.8 7.168 17.408c3.584 3.072 8.192 5.12 13.312 5.632" p-id="13879"></path></svg>