<?xml version="1.0" standalone="no"?><!DOCTYPE svg PUBLIC "-//W3C//DTD SVG 1.1//EN" "http://www.w3.org/Graphics/SVG/1.1/DTD/svg11.dtd"><svg t="1600485357661" class="icon" viewBox="0 0 1024 1024" version="1.1" xmlns="http://www.w3.org/2000/svg" p-id="11988" xmlns:xlink="http://www.w3.org/1999/xlink" width="200" height="200"><defs><style type="text/css"></style></defs><path d="M1022.976 340.992v-1.024-5.12l-2.048-8.704v-0.512c-6.656-18.944-18.432-30.72-26.624-38.912l-6.144-6.144c-6.656-7.168-13.824-13.824-20.48-20.48-6.144-5.632-11.776-10.752-17.408-16.896l-151.04-147.456-1.536-1.536c-7.68-8.192-16.896-16.896-30.208-24.064-14.336-7.68-32.256-9.216-54.784-9.216h-9.216c-9.728 0-25.088-0.512-36.864-0.512-14.336 0-17.92 0-19.968 0.512-5.12 1.024-14.336 4.096-17.92 5.12l-1.536 0.512-19.456 12.8c-8.704 6.656-14.848 14.336-18.944 20.48l-0.512 0.512c-1.536 2.048-3.072 4.096-4.096 5.12-15.36 12.288-26.112 15.872-56.32 22.016h-1.024c-5.12 1.536-8.704 1.536-10.752 1.536l-18.432-1.024c-15.872-3.072-27.648-5.632-37.376-10.24h-0.512c-8.704-3.584-17.408-9.728-20.48-13.312l-1.536-2.048c-5.632-7.68-12.8-16.896-23.04-24.576-7.68-6.144-23.04-14.336-32.768-16.384-7.168-1.536-18.432-2.048-34.816-2.048-26.112 0-54.784 2.048-56.32 2.048h-1.024l-26.112 6.656-1.024 0.512c-17.408 6.656-29.184 18.944-36.864 26.624L66.56 251.904c-4.608 4.096-8.704 8.192-12.8 12.288-3.584 3.584-6.656 6.656-11.264 10.752C28.672 286.72 7.68 305.152 1.024 338.944c-3.584 18.944 3.584 35.84 7.68 45.056v0.512c7.168 16.384 18.432 26.624 26.112 33.792l2.048 1.536h0.512c1.024 1.024 3.072 2.56 4.096 4.096l5.632 5.632c5.632 6.144 11.776 11.776 17.92 17.408l19.968 19.968 36.352 34.816 10.24 10.24 2.048 2.048c4.096 4.096 9.216 9.216 15.872 13.824 14.848 10.24 33.792 15.872 51.2 15.872 7.68 0 15.36-1.024 22.016-3.072v327.168c0 13.312 0 28.16 5.632 41.984 7.68 19.456 23.04 33.792 33.792 40.448 17.92 11.776 39.936 13.312 61.44 13.312h338.944l30.72 0.512c25.088 0 54.272-1.536 76.8-18.432 14.336-11.264 25.6-29.184 30.208-48.64v-0.512l0.512-5.632c0.512-31.232 0.512-60.928 0.512-92.672v-257.536c7.68 2.56 15.872 3.584 24.064 3.584 5.632 0 10.752-0.512 16.384-1.536 31.232-5.632 51.2-28.672 62.976-42.496l96.256-93.184 2.56-3.072 1.024-1.536c7.168-9.216 23.04-30.72 18.432-61.44z m-167.936 107.52l-3.072 3.584-1.024 1.024c-6.656 7.168-15.36 17.408-21.504 18.432-1.024 0-2.048 0.512-3.072 0.512-4.608 0-8.704-3.072-19.456-12.8l-33.28-31.744-44.032 30.208v427.52c-1.024 2.048-2.048 3.584-3.072 4.096-5.12 3.584-24.576 4.096-32.768 4.096l-349.696-0.512-19.456 0.512c-16.896 0-21.504-1.536-22.528-2.048-1.536-1.024-4.096-4.096-5.12-5.632-0.512-3.584-0.512-13.312-0.512-18.944v-409.6l-48.64-28.672-6.656 7.68c-4.096 4.608-15.36 17.408-18.432 20.48-7.168 7.68-12.8 13.312-19.456 15.872h-0.512c-3.072 0-7.68-1.536-9.728-3.072l-0.512-0.512h-0.512c-1.024-0.512-3.072-2.56-5.12-4.608l-2.048-2.048-47.616-46.08c-6.656-6.144-13.312-12.8-19.456-19.456l-1.024-1.024-2.56-2.048c-3.584-3.072-6.656-6.144-10.24-9.728l-3.584-3.584-6.656-7.168c-2.56-2.56-5.12-5.12-7.68-7.168-6.144-5.12-8.192-7.68-9.728-10.752-0.512-1.024-1.024-2.56-1.536-3.584 0-0.512-0.512-1.024-0.512-1.536 1.536-6.144 5.632-10.752 18.432-22.016l13.312-13.312 4.608-4.608c2.048-2.048 4.096-3.584 6.144-5.632l133.12-130.048 29.184-28.672 0.512-0.512c9.216-9.728 10.752-10.24 15.36-10.752l13.824-1.024h57.856c0.512 0 0.512 0 1.024 0.512 1.024 0.512 2.048 0.512 2.048 1.024l1.024 0.512h1.024c0.512 0 1.024 0.512 2.048 0.512 3.072 2.56 5.632 6.144 9.216 10.752l1.536 2.048c16.384 20.48 41.984 32.256 49.152 35.84 15.36 6.144 31.744 10.752 54.784 14.848h0.512l16.384 1.536c3.072 0.512 6.656 1.024 10.752 1.024 7.168 0 15.872-1.024 26.112-3.072 36.864-7.168 59.392-14.336 87.552-36.864 7.68-6.144 12.8-12.288 16.896-18.432 1.536-1.536 2.56-3.072 4.096-4.608l0.512-0.512 6.656-4.096c1.024 0 2.56-0.512 4.608-1.024h35.328c5.632-0.512 11.264-0.512 16.896-0.512 13.824 0 19.456 1.024 20.992 1.024 4.096 2.048 9.216 7.68 14.336 12.8l150.528 146.432c6.144 6.656 12.8 12.8 19.968 19.456 5.12 4.608 11.776 10.752 17.408 16.896l6.656 6.656c4.096 4.096 6.656 6.656 8.704 9.216l0.512 4.608c0 0.512 0.512 1.536-3.584 7.168L855.04 448.512z" p-id="11989"></path></svg>