<?xml version="1.0" standalone="no"?><!DOCTYPE svg PUBLIC "-//W3C//DTD SVG 1.1//EN" "http://www.w3.org/Graphics/SVG/1.1/DTD/svg11.dtd"><svg t="1601172078065" class="icon" viewBox="0 0 1024 1024" version="1.1" xmlns="http://www.w3.org/2000/svg" p-id="12818" xmlns:xlink="http://www.w3.org/1999/xlink" width="200" height="200"><defs><style type="text/css"></style></defs><path d="M913.92 409.088L240.64 16.384C183.808-16.896 110.592 2.56 77.312 59.392c-10.752 18.432-16.384 38.912-16.384 60.416v784.896c0 66.048 53.248 119.296 119.296 119.296 20.992 0 41.984-5.632 59.904-16.384l672.768-392.704c56.832-33.28 76.288-106.496 43.008-163.328-9.728-17.408-24.576-32.256-41.984-42.496z m-34.304 117.76c-2.56 4.608-6.144 8.192-10.752 10.752L195.584 930.304c-14.336 8.192-32.768 3.584-40.96-10.752-2.56-4.608-4.096-9.728-4.096-14.848V119.296c0-16.384 13.312-29.696 29.696-29.696 5.12 0 10.24 1.536 14.848 4.096L868.352 486.4c12.8 7.68 18.432 23.552 12.8 37.376 0-0.512-1.536 3.072-1.536 3.072z" p-id="12819"></path></svg>