<?xml version="1.0" standalone="no"?><!DOCTYPE svg PUBLIC "-//W3C//DTD SVG 1.1//EN" "http://www.w3.org/Graphics/SVG/1.1/DTD/svg11.dtd"><svg t="1601172081106" class="icon" viewBox="0 0 1024 1024" version="1.1" xmlns="http://www.w3.org/2000/svg" p-id="12952" xmlns:xlink="http://www.w3.org/1999/xlink" width="200" height="200"><defs><style type="text/css"></style></defs><path d="M119.296 614.912l673.28 392.704c56.832 33.28 130.048 13.824 163.328-43.008 10.752-18.432 16.384-38.912 16.384-60.416V119.296c0-66.048-53.248-119.296-119.296-119.296-20.992 0-41.984 5.632-59.904 16.384L120.32 409.088c-56.832 33.28-76.288 106.496-43.008 163.328 9.728 17.408 24.576 32.256 41.984 42.496z m34.304-117.76c2.56-4.608 6.144-8.192 10.752-10.752l673.28-392.704c14.336-8.192 32.768-3.584 40.96 10.752 2.56 4.608 4.096 9.728 4.096 14.848v785.408c0 16.384-13.312 29.696-29.696 29.696-5.12 0-10.24-1.536-14.848-4.096L164.864 537.6c-12.8-7.68-18.432-23.552-12.8-37.376 0 0.512 1.536-3.072 1.536-3.072z" p-id="12953"></path></svg>