<?xml version="1.0" standalone="no"?><!DOCTYPE svg PUBLIC "-//W3C//DTD SVG 1.1//EN" "http://www.w3.org/Graphics/SVG/1.1/DTD/svg11.dtd"><svg t="1598337896577" class="icon" viewBox="0 0 1024 1024" version="1.1" xmlns="http://www.w3.org/2000/svg" p-id="9603" xmlns:xlink="http://www.w3.org/1999/xlink" width="200" height="200"><defs><style type="text/css"></style></defs><path d="M76.761619 76.761619h870.988506v870.988506H76.761619z" fill="#FFFFFF" p-id="9604"></path><path d="M942.12094 0H81.87906C36.845577 0 0 36.845577 0 81.87906v860.24188c0 45.033483 36.845577 81.87906 81.87906 81.87906h860.24188c45.033483 0 81.87906-36.845577 81.87906-81.87906V81.87906c0-45.033483-36.333833-81.87906-81.87906-81.87906z m-20.469766 839.772114c0 45.033483-36.845577 81.87906-81.87906 81.87906H184.227886c-45.033483 0-81.87906-36.845577-81.87906-81.87906V184.227886c0-45.033483 36.845577-81.87906 81.87906-81.87906h655.544228c45.033483 0 81.87906 36.845577 81.87906 81.87906v655.544228z" fill="#CCCCCC" p-id="9605"></path><path d="M768.127936 563.430285H255.872064c-28.145927 0-51.174413-23.028486-51.174413-51.174413s23.028486-51.174413 51.174413-51.174413h512.255872c28.145927 0 51.174413 23.028486 51.174413 51.174413s-23.028486 51.174413-51.174413 51.174413z" fill="#CCCCCC" p-id="9606"></path><path d="M563.430285 255.872064v512.255872c0 28.145927-23.028486 51.174413-51.174413 51.174413s-51.174413-23.028486-51.174413-51.174413V255.872064c0-28.145927 23.028486-51.174413 51.174413-51.174413s51.174413 23.028486 51.174413 51.174413z" fill="#CCCCCC" p-id="9607"></path></svg>